<svg xmlns="http://www.w3.org/2000/svg" xmlns:xlink="http://www.w3.org/1999/xlink" width="928" height="1092" viewBox="0 0 928 1092"><defs><clipPath id="a"><rect width="928" height="1092" transform="translate(992 134)" fill="none"/></clipPath></defs><g transform="translate(-992 -134)" clip-path="url(#a)"><g transform="translate(1221.194 -423.338)"><g transform="translate(-165.744 583.579)"><path d="M-114.516,658.207S-64.851,739.146-.08,823.369c35.765,46.514,125.285,185.251,338.7,185.251" transform="translate(987.198 475.926)" fill="none" stroke="#ffb782" stroke-miterlimit="10" stroke-width="1"/><path d="M964.809,1762.713c-67.24-68.525-126.19-169.944-126.19-169.944l154.547-91.363V1358.712l123.017-73.8V1180.992l68.883-51.072L1022.7,797.8,697.949,556.7H304.329l-364.1,157.453-132.849,327.2,162.369,228.793,123.006,29.531L213.3,1448.511H451.938v52.894l228.123,189.43" transform="translate(192.621 -556.702)" fill="none" stroke="#ffb782" stroke-miterlimit="10" stroke-width="1"/><path d="M112.6,848.463c-54.034,0-93.9-28.8-135.654-85.385C-76.933,690.061-99.983,658.33-99.983,658.33" transform="translate(1135.044 477.179)" fill="none" stroke="#ffb782" stroke-miterlimit="10" stroke-width="1"/><line x2="81.623" y2="145.489" transform="translate(949.619 890.577)" fill="none" stroke="#ffb782" stroke-miterlimit="10" stroke-width="1"/><line x2="386.681" y2="91.366" transform="translate(644.561 944.699)" fill="none" stroke="#ffb782" stroke-miterlimit="10" stroke-width="1"/><line x2="236.174" y2="54.123" transform="translate(949.619 890.577)" fill="none" stroke="#ffb782" stroke-miterlimit="10" stroke-width="1"/><line x2="308.858" transform="translate(640.761 890.577)" fill="none" stroke="#ffb782" stroke-miterlimit="10" stroke-width="1"/><line y1="88.565" x2="236.174" transform="translate(949.619 802.011)" fill="none" stroke="#ffb782" stroke-miterlimit="10" stroke-width="1"/><line y1="54.123" x2="305.058" transform="translate(644.561 890.577)" fill="none" stroke="#ffb782" stroke-miterlimit="10" stroke-width="1"/><line x1="3.8" y1="222.643" transform="translate(640.761 669.163)" fill="none" stroke="#ffb782" stroke-miterlimit="10" stroke-width="1"/><line x1="231.924" y1="464.968" transform="translate(640.761 669.163)" fill="none" stroke="#ffb782" stroke-miterlimit="10" stroke-width="1"/><line x1="310.758" y1="222.643" transform="translate(640.761 669.163)" fill="none" stroke="#ffb782" stroke-miterlimit="10" stroke-width="1"/><line x1="193.791" y1="407.154" transform="translate(757.727 484.652)" fill="none" stroke="#ffb782" stroke-miterlimit="10" stroke-width="1"/><line y1="310.907" x2="191.891" transform="translate(949.619 576.908)" fill="none" stroke="#ffb782" stroke-miterlimit="10" stroke-width="1"/><line x1="44.283" y1="225.103" transform="translate(1141.51 576.908)" fill="none" stroke="#ffb782" stroke-miterlimit="10" stroke-width="1"/><line x1="167.29" y1="151.299" transform="translate(1141.51 576.908)" fill="none" stroke="#ffb782" stroke-miterlimit="10" stroke-width="1"/><line x1="167.213" y1="50.397" transform="translate(1141.51 576.908)" fill="none" stroke="#ffb782" stroke-miterlimit="10" stroke-width="1"/><line x1="230.024" transform="translate(1147.661 576.908)" fill="none" stroke="#ffb782" stroke-miterlimit="10" stroke-width="1"/><line x1="73.804" y2="335.81" transform="translate(1141.51 241.098)" fill="none" stroke="#ffb782" stroke-miterlimit="10" stroke-width="1"/><line x2="95.946" y2="239.864" transform="translate(1045.565 337.044)" fill="none" stroke="#ffb782" stroke-miterlimit="10" stroke-width="1"/><line y1="147.609" x2="287.837" transform="translate(757.727 337.044)" fill="none" stroke="#ffb782" stroke-miterlimit="10" stroke-width="1"/><line x2="383.783" y2="92.255" transform="translate(757.727 484.652)" fill="none" stroke="#ffb782" stroke-miterlimit="10" stroke-width="1"/><line y1="29.522" x2="468.658" transform="translate(289.07 484.652)" fill="none" stroke="#ffb782" stroke-miterlimit="10" stroke-width="1"/><line x2="289.067" y2="29.522" transform="translate(0.003 484.652)" fill="none" stroke="#ffb782" stroke-miterlimit="10" stroke-width="1"/><line x2="351.691" y2="154.989" transform="translate(289.07 514.174)" fill="none" stroke="#ffb782" stroke-miterlimit="10" stroke-width="1"/><line x2="116.821" y2="376.402" transform="translate(289.07 514.174)" fill="none" stroke="#ffb782" stroke-miterlimit="10" stroke-width="1"/><line y1="73.804" x2="355.382" transform="translate(285.379 669.163)" fill="none" stroke="#ffb782" stroke-miterlimit="10" stroke-width="1"/><line y1="199.272" x2="126.698" transform="translate(162.372 514.174)" fill="none" stroke="#ffb782" stroke-miterlimit="10" stroke-width="1"/><line y1="254.625" x2="385.013" transform="translate(0.003 230.027)" fill="none" stroke="#ffb782" stroke-miterlimit="10" stroke-width="1"/><line x1="156.219" y1="356.721" transform="translate(132.85 157.453)" fill="none" stroke="#ffb782" stroke-miterlimit="10" stroke-width="1"/><line y1="230.024" x2="111.937" transform="translate(385.015 0.003)" fill="none" stroke="#ffb782" stroke-miterlimit="10" stroke-width="1"/><line y1="284.147" x2="95.946" transform="translate(289.07 230.027)" fill="none" stroke="#ffb782" stroke-miterlimit="10" stroke-width="1"/><line x1="314.789" y2="59.043" transform="translate(385.015 170.984)" fill="none" stroke="#ffb782" stroke-miterlimit="10" stroke-width="1"/><line x1="372.712" y1="254.625" transform="translate(385.015 230.027)" fill="none" stroke="#ffb782" stroke-miterlimit="10" stroke-width="1"/><line x1="252.165" y1="72.574" transform="translate(132.85 157.453)" fill="none" stroke="#ffb782" stroke-miterlimit="10" stroke-width="1"/><line x1="202.852" y1="170.98" transform="translate(496.952 0.003)" fill="none" stroke="#ffb782" stroke-miterlimit="10" stroke-width="1"/><line x1="345.76" y1="166.06" transform="translate(699.804 170.984)" fill="none" stroke="#ffb782" stroke-miterlimit="10" stroke-width="1"/><line x1="332.12" y1="236.174" transform="translate(1045.565 337.044)" fill="none" stroke="#ffb782" stroke-miterlimit="10" stroke-width="1"/><line x1="57.923" y1="313.669" transform="translate(699.804 170.984)" fill="none" stroke="#ffb782" stroke-miterlimit="10" stroke-width="1"/><line y1="170.98" x2="190.771" transform="translate(699.804 0.003)" fill="none" stroke="#ffb782" stroke-miterlimit="10" stroke-width="1"/><line x1="154.989" y1="337.04" transform="translate(890.575 0.003)" fill="none" stroke="#ffb782" stroke-miterlimit="10" stroke-width="1"/><line y1="91.025" x2="167.217" transform="translate(1045.565 246.018)" fill="none" stroke="#ffb782" stroke-miterlimit="10" stroke-width="1"/><line y1="184.511" x2="116.966" transform="translate(640.761 484.652)" fill="none" stroke="#ffb782" stroke-miterlimit="10" stroke-width="1"/><line x2="359.181" y2="148.839" transform="translate(285.379 742.968)" fill="none" stroke="#ffb782" stroke-miterlimit="10" stroke-width="1"/></g><line x2="138.24" y2="186.975" transform="translate(596.144 1707.649)" fill="none" stroke="#ff5229" stroke-miterlimit="10" stroke-width="1"/><g transform="translate(-195.263 554.06)"><circle cx="62.734" cy="62.734" r="62.734" transform="translate(724.513 451.437)" fill="#ffb782"/><circle cx="29.522" cy="29.522" r="29.522" transform="translate(385.013 230.024)" fill="#ffb782"/><circle cx="29.522" cy="29.522" r="29.522" transform="translate(134.078 164.933)" fill="#ffb782"/><circle cx="29.522" cy="29.522" r="29.522" transform="translate(0 484.649)" fill="#ffb782"/><circle cx="29.522" cy="29.522" r="29.522" transform="translate(163.6 714.673)" fill="#ffb782"/><circle cx="20.875" cy="20.875" r="20.875" transform="translate(292.793 752.841)" fill="#ffb782"/><circle cx="20.875" cy="20.875" r="20.875" transform="translate(414.535 899.22)" fill="#ffb782"/><circle cx="20.875" cy="20.875" r="20.875" transform="translate(649.405 899.22)" fill="#ffb782"/><circle cx="14.761" cy="14.761" r="14.761" transform="translate(660.288 963.326)" fill="#ffb782"/><circle cx="14.761" cy="14.761" r="14.761" transform="translate(1049.816 1150.265)" fill="#ffb782"/><circle cx="20.875" cy="20.875" r="20.875" transform="translate(884.142 1144.151)" fill="#ffb782"/><circle cx="20.875" cy="20.875" r="20.875" transform="translate(1166.075 1214.65)" fill="#ffb782"/><circle cx="20.875" cy="20.875" r="20.875" transform="translate(1191.904 811.848)" fill="#ffb782"/><circle cx="20.875" cy="20.875" r="20.875" transform="translate(1317.367 738.044)" fill="#ffb782"/><circle cx="20.875" cy="20.875" r="20.875" transform="translate(1317.367 635.948)" fill="#ffb782"/><circle cx="29.522" cy="29.522" r="29.522" transform="translate(496.949)" fill="#ffb782"/><circle cx="29.522" cy="29.522" r="29.522" transform="translate(890.573)" fill="#ffb782"/><circle cx="29.522" cy="29.522" r="29.522" transform="translate(289.067 514.17)" fill="#ffb782"/><circle cx="29.522" cy="29.522" r="29.522" transform="translate(640.758 669.16)" fill="#ffb782"/><circle cx="29.522" cy="29.522" r="29.522" transform="translate(949.616 890.573)" fill="#ffb782"/><circle cx="29.522" cy="29.522" r="29.522" transform="translate(1035.055 1036.964)" fill="#ffb782"/><circle cx="29.522" cy="29.522" r="29.522" transform="translate(1183.258 940.97)" fill="#ffb782"/><circle cx="29.522" cy="29.522" r="29.522" transform="translate(1141.508 576.904)" fill="#ffb782"/><circle cx="29.522" cy="29.522" r="29.522" transform="translate(1045.562 337.04)" fill="#ffb782"/><circle cx="29.522" cy="29.522" r="29.522" transform="translate(1377.682 576.904)" fill="#ffb782"/><circle cx="29.522" cy="29.522" r="29.522" transform="translate(1212.78 246.015)" fill="#ffb782"/><circle cx="29.522" cy="29.522" r="29.522" transform="translate(699.802 170.98)" fill="#ffb782"/><circle cx="20.875" cy="20.875" r="20.875" transform="translate(766.372 1123.276)" fill="#ffb782"/></g></g></g></svg>